<svg id="Calque_1" data-name="Calque 1" xmlns="http://www.w3.org/2000/svg" viewBox="0 0 300 300"><defs><style>.cls-1{fill:#fff;}</style></defs><title>Facebook_Plan de travail 1</title><path class="cls-1" d="M159.42,48.25C220.16,48.4,268.22,97,268,157.92c-.22,59.77-49.2,107.57-110.06,107.4-59.18-.16-107.51-48.89-107.6-108.5C50.25,96.83,99.21,48.1,159.42,48.25Zm93.23,108.41a93.52,93.52,0,0,0-187-.06c-.1,51.84,42.27,94.12,93.94,93.72C211.57,249.91,252.67,208.56,252.65,156.66Z"/><path class="cls-1" d="M142.57,157.8c-10.91-2.41-11.33-2.75-10.06-13.4.23-2,2.63-5.08,4.25-5.22,5.11-.47,6.1-3.17,5.83-7.42a58.26,58.26,0,0,1,0-5.91c.53-12.6,6.35-18.84,18.9-20.16a72.4,72.4,0,0,1,7.37-.26c10.79-.05,10.57,0,10.73,10.82.08,5.13-1,8.1-6.87,7.38-6.18-.75-8.91,2-9.14,8.35-.25,6.93,4.17,6.63,8.74,6.77,2.12.07,4.24.35,6.68.56-.3,4.7.07,9-1.08,12.83-.57,1.91-4.06,4.42-6,4.21-7-.75-8.34,2.26-8.13,8.46.41,11.79-.1,23.61.21,35.41.14,5.2-1.66,6.84-6.79,6.7-17.64-.48-14.39,2.08-14.64-14.16C142.42,181,142.57,169.28,142.57,157.8Z"/><rect class="cls-1" x="132.01" y="138.75" width="47.6" height="18.15"/></svg>