<svg id="Calque_1" data-name="Calque 1" xmlns="http://www.w3.org/2000/svg" viewBox="0 0 300 300"><defs><style>.cls-1{fill:#000;}</style></defs><title>linkedin</title><path class="cls-1" d="M149.77,50.48c55.63,0,100.09,44.17,100,99.46-.09,55-44.58,99.55-99.42,99.58A99.84,99.84,0,0,1,50.23,149.85C50.19,95,94.76,50.54,149.77,50.48Zm.56,185.21c47.94-.45,85.81-38.78,85.51-86.57-.3-48.08-39.1-85.32-88.4-84.85C101.8,64.7,64,103.79,64.3,150.33,64.56,197.69,103.3,236.13,150.33,235.69Z"/><path class="cls-1" d="M159.7,135.11c7.15-7.1,13.86-10.34,22.06-9.4,12.39,1.42,20.44,9.63,21.08,22.48.6,12.37.32,24.78.59,37.17.09,4.17-1.66,5.3-5.68,5.34-15.73.13-15.7.25-15.73-15.59,0-6.76.1-13.54-.3-20.28-.48-8-4.11-12.08-10-12.13-6.7,0-11.5,5.09-11.68,13.05-.21,9.24-.26,18.49,0,27.72.16,5.16-1.56,7.73-6.93,7.24-.67-.06-1.35,0-2,0-11.7.05-12.3-.51-12.32-12.05,0-14.88.12-29.76-.06-44.63-.07-5.25,1.61-7.6,7.15-6.69,2.39.4,4.93-.19,7.4-.19C157.33,127.16,160.71,128.05,159.7,135.11Z"/><path class="cls-1" d="M105.93,158.51c0-8.34.2-16.69-.07-25-.17-5.28,2.29-6.86,7-6.24.45.06.89.21,1.33.25,13.37,1,13.37,1,13.37,15s-.11,28,.06,42c0,4.58-1.39,6.32-6.26,6.26-15.45-.18-15.45,0-15.45-15.29Z"/><path class="cls-1" d="M116.64,118.69c-7-.09-12-4.82-11.77-11.15s5.47-10.9,12.25-10.82,11.75,4.76,11.63,11.26S123.76,118.77,116.64,118.69Z"/></svg>