<svg id="Calque_1" data-name="Calque 1" xmlns="http://www.w3.org/2000/svg" viewBox="0 0 300 300"><defs><style>.cls-1{fill:#000;}</style></defs><title>TWIT</title><path class="cls-1" d="M254.09,149.86c.16,57.36-46,104.53-102.38,104.68C92,254.71,45,209.16,44.75,150.76,44.47,93,91,45.77,148.34,45.65,207.42,45.52,253.93,91.36,254.09,149.86ZM59.45,150c0,49.7,40.22,90.2,89.73,90.29a90,90,0,0,0,1-180C99.68,60.19,59.5,99.92,59.45,150Z"/><path class="cls-1" d="M101.21,190.69l29.23-8.83c-6.22-3.64-10.65-5.58-14.27-8.53-3.39-2.77-7.77-6.21-3.48-9.91L100.15,143h9.13c-7.09-8.63-9-17.48-3.63-28.26,12.27,13.09,26.45,21.57,44.87,22.71.2-2.46.36-4.51.54-6.56A22.25,22.25,0,0,1,181.59,112c10.62,4.23,10.62,4.23,21.62,1.64-2.18,3.69-3.84,6.49-5.67,9.6l6.9-.84c.19.59.35.92.29,1-9.12,7.09-8.67,17.79-11,27.69-9.27,38.65-50.63,58.67-87,42.56C104.82,192.76,103,191.67,101.21,190.69Z"/></svg>