<svg xmlns="http://www.w3.org/2000/svg" width="32.223" height="32.742" viewBox="0 0 32.223 32.742"><defs><style>.a{fill:#f38d15;}</style></defs><path class="a" d="M32.019,5.02A4.064,4.064,0,0,0,31.2,1.528,3.88,3.88,0,0,0,28.035,0H4.133A4.062,4.062,0,0,0,.914,1.528,4.2,4.2,0,0,0,.1,5.02,16.2,16.2,0,0,0,9.536,16.371,16.26,16.26,0,0,0,.15,27.722a4.064,4.064,0,0,0,.819,3.493,3.88,3.88,0,0,0,3.165,1.528H28.09a4.141,4.141,0,0,0,3.22-1.528,4.2,4.2,0,0,0,.819-3.493,16.4,16.4,0,0,0-9.5-11.351A16.007,16.007,0,0,0,32.019,5.02ZM29.4,28.322a1.24,1.24,0,0,1-.273,1.146,1.374,1.374,0,0,1-1.091.491H4.133a1.374,1.374,0,0,1-1.091-.491,1.275,1.275,0,0,1-.273-1.146,13.667,13.667,0,0,1,26.63,0ZM16.084,15.007A13.61,13.61,0,0,1,2.769,4.42a1.24,1.24,0,0,1,.273-1.146,1.274,1.274,0,0,1,1.091-.546H28.09a1.374,1.374,0,0,1,1.091.491,1.275,1.275,0,0,1,.273,1.146A13.708,13.708,0,0,1,16.084,15.007Zm8.4-6.439a12.026,12.026,0,0,1-8.4,3.383,12.476,12.476,0,0,1-8.4-3.383A1.659,1.659,0,0,1,8.826,5.73H23.287A1.672,1.672,0,0,1,24.488,8.568Z"/></svg>