<svg xmlns="http://www.w3.org/2000/svg" width="29.49" height="38.802" viewBox="0 0 29.49 38.802"><defs><style>.a{fill:#14c25a;}</style></defs><path class="a" d="M2.328,4.656A2.328,2.328,0,1,0,0,2.328,2.331,2.331,0,0,0,2.328,4.656Z" transform="translate(12.417 23.281)"/><path class="a" d="M25.8,12.417H23.281V8.537a8.537,8.537,0,1,0-17.073,0v3.88H3.686A3.69,3.69,0,0,0,0,16.1V35.116A3.69,3.69,0,0,0,3.686,38.8H25.8a3.691,3.691,0,0,0,3.686-3.686V16.1A3.691,3.691,0,0,0,25.8,12.417ZM14.745,21.729a3.88,3.88,0,1,1-3.88,3.88A3.885,3.885,0,0,1,14.745,21.729ZM7.76,8.537a6.984,6.984,0,1,1,13.969,0v3.88H7.76Z"/></svg>