<svg id="Vaanah_logotype_privisoire-05" data-name="Vaanah logotype privisoire-05" xmlns="http://www.w3.org/2000/svg" width="160.15" height="52.24" viewBox="0 0 160.15 52.24">
  <path id="Tracé_1" data-name="Tracé 1" d="M241.624,115.36v14.611c0,.627-.431.893-1.058.893-8.1,0-14.447-6.659-14.447-15.5a.968.968,0,0,1,1.026-.893.9.9,0,0,1,.858.893,14.707,14.707,0,0,0,3.4,9.754,12.958,12.958,0,0,0,8.3,3.968v-13.71a.881.881,0,0,1,.858-.893C241.193,114.467,241.624,114.8,241.624,115.36Z" transform="translate(-174.985 -91.391)" fill="#f8f8f8"/>
  <path id="Tracé_2" data-name="Tracé 2" d="M287.121,123.045v7.008a.92.92,0,0,1-.96,1.026,1.018,1.018,0,0,1-.96-1.026V127.8a8.166,8.166,0,1,1,1.919-5.257Zm-1.915,0v-.5a6.407,6.407,0,1,0,0,.5Z" transform="translate(-202.036 -91.34)" fill="#f8f8f8"/>
  <path id="Tracé_3" data-name="Tracé 3" d="M333.191,123.045v7.008a.921.921,0,0,1-.96,1.026,1.018,1.018,0,0,1-.96-1.026V127.8a8.166,8.166,0,1,1,1.919-5.257Zm-1.915,0v-.5a6.284,6.284,0,1,0,.012.5Z" transform="translate(-230.06 -91.34)" fill="#f8f8f8"/>
  <path id="Tracé_4" data-name="Tracé 4" d="M381.691,122.18V129.6a.96.96,0,0,1-.893.893.991.991,0,0,1-1.026-.893v-7.4a6.381,6.381,0,1,0-12.762,0l-.133,7.537a.85.85,0,0,1-.893.893.936.936,0,0,1-.893-.893V122.18a8.3,8.3,0,1,1,16.6,0Z" transform="translate(-259.518 -91.035)" fill="#f8f8f8"/>
  <path id="Tracé_5" data-name="Tracé 5" d="M428.121,123.045v7.008a.921.921,0,0,1-.96,1.026,1.018,1.018,0,0,1-.96-1.026V127.8a8.166,8.166,0,1,1,1.919-5.257Zm-1.916,0v-.5a6.407,6.407,0,1,0,0,.5Z" transform="translate(-287.804 -91.34)" fill="#f8f8f8"/>
  <path id="Tracé_6" data-name="Tracé 6" d="M477.983,110.525v7.537a.991.991,0,0,1-.924.893.866.866,0,0,1-.893-.893v-7.537a6.706,6.706,0,0,0-13.389,0v7.537a.874.874,0,0,1-.924.893.987.987,0,0,1-.893-.893V95.612a.866.866,0,0,1,.893-.893.991.991,0,0,1,.924.893v9.793a8.641,8.641,0,0,1,6.612-3.008A8.289,8.289,0,0,1,477.983,110.525Z" transform="translate(-317.834 -79.38)" fill="#f8f8f8"/>
  <path id="Tracé_7" data-name="Tracé 7" d="M138.575,95.618a4.874,4.874,0,0,0-8.868-3.185l-3.408,4.92a11.035,11.035,0,0,1-5.844,4.309,11.281,11.281,0,0,1-6.828-.039,11.035,11.035,0,0,1-5.77-4.332l-3.29-4.846a4.877,4.877,0,0,0-4.035-2.135h-.023a4.869,4.869,0,0,0-4.842,4.325v.172c-.055.619-.086,1.242-.086,1.872,0,9.2,12.9,24.549,18.72,31.016a3.749,3.749,0,0,0,2.824,1.242h0a3.749,3.749,0,0,0,2.766-1.242c5.825-6.463,18.72-21.815,18.72-31.016C138.6,96.323,138.591,95.97,138.575,95.618Z" transform="translate(-95.58 -76.698)" fill="#f8f8f8"/>
  <circle id="Ellipse_3" data-name="Ellipse 3" cx="7.701" cy="7.701" r="7.701" transform="translate(13.804)" fill="#f8f8f8"/>
</svg>
