<svg xmlns="http://www.w3.org/2000/svg" viewBox="0 0 3 3"><defs><style>.cls-1{fill:#fff;}</style></defs><g id="Calque_2" data-name="Calque 2"><g id="Layer_1" data-name="Layer 1"><path class="cls-1" d="M0,.88c0-.05,0-.1,0-.14A.93.93,0,0,1,.5.09a.7.7,0,0,1,.63,0,.8.8,0,0,1,.36.3h0l0,0A.77.77,0,0,1,2.1,0a.73.73,0,0,1,.67.3A1,1,0,0,1,3,1a1.6,1.6,0,0,1-.15.58,2.73,2.73,0,0,1-.51.73,4.09,4.09,0,0,1-.8.64s-.05,0-.08,0a3.74,3.74,0,0,1-1-.82,2.11,2.11,0,0,1-.42-.73A1.35,1.35,0,0,1,0,1.08a0,0,0,0,1,0,0ZM.82.11.68.13A.82.82,0,0,0,.11.87a1.17,1.17,0,0,0,.05.49A1.9,1.9,0,0,0,.49,2a3.86,3.86,0,0,0,1,.89h0l.2-.13A3.61,3.61,0,0,0,2.54,2a1.78,1.78,0,0,0,.33-.74.83.83,0,0,0,0-.35.93.93,0,0,0-.2-.48A.66.66,0,0,0,2.24.12a.64.64,0,0,0-.55.2.85.85,0,0,0-.14.19.06.06,0,0,1-.1,0v0A.72.72,0,0,0,.82.11Z"/></g></g></svg>