<svg id="Calque_1" data-name="Calque 1" xmlns="http://www.w3.org/2000/svg" viewBox="0 0 300 300"><defs><style>.cls-1{fill:#fff;}</style></defs><title>Panier</title><path class="cls-1" d="M223.34,79.12h3.14c9.17,2.17,11.32,12.34,4.09,18.95-8.86,8.12-17.1,16.92-25.6,25.43-.48.48-.94,1-1.77,1.82h2.64c8.5,0,17,0,25.5,0a7,7,0,0,1,7.28,7.09q.09,10.59,0,21.19a7,7,0,0,1-6.9,7.07,2.1,2.1,0,0,0-2.4,1.84c-2.33,8.36-4.76,16.7-7.17,25-3.67,12.73-7.37,25.45-11,38.2a7.39,7.39,0,0,1-6.59,5.8,20.54,20.54,0,0,1-2.93.14H98.27a23.17,23.17,0,0,1-2.36-.06c-3.86-.39-6-2.21-7.12-5.93q-5.13-17.78-10.25-35.56c-2.65-9.22-5.29-18.44-8-27.64-.2-.67-.91-1.7-1.37-1.69-4,0-6.43-2.07-7.87-5.59V130.91c1.47-4.12,4.38-5.74,8.75-5.64,8.1.19,16.2,0,24.3,0h1.87l.64-.86a8,8,0,0,1-1.9-1Q81.55,110.1,68.2,96.7c-4.18-4.21-4.53-10.31-.55-14.19,1.56-1.51,3.85-2.28,5.81-3.39H76.6c3.12.9,5.4,3,7.64,5.2C97.43,97.56,110.7,110.72,123.9,124a4.36,4.36,0,0,0,3.43,1.39q22.55-.07,45.09,0a4.81,4.81,0,0,0,3.76-1.53c13.15-13.19,26.37-26.32,39.52-39.5C217.94,82.09,220.22,80,223.34,79.12ZM77.57,160.84c.2.77.34,1.33.5,1.89q8.55,29.73,17.07,59.47c.52,1.83,1.32,2.46,3.25,2.45q51.48-.08,103,0c2.1,0,2.95-.68,3.51-2.66,5.28-18.58,10.66-37.13,16-55.7.52-1.78,1-3.58,1.49-5.46H181.89a10.92,10.92,0,0,1,4.31,8.84c0,12.82,0,25.63-.06,38.45a12.19,12.19,0,0,1-1.09,4.9,9.9,9.9,0,0,1-11.15,5.32,10,10,0,0,1-7.83-9.78c0-12.49.06-25-.07-37.47,0-4,.89-7.34,4-9.95,0,0,0-.22-.05-.3H155.73c2.71,2.26,4.3,4.85,4.31,8.08.06,13.27.11,26.54,0,39.81a9.9,9.9,0,0,1-8.6,9.72c-6.4.82-11.54-3.79-11.57-10.51,0-11.77,0-23.53,0-35.3,0-4.43.19-8.64,4.55-11.78H129.5c2.75,2.19,4.34,4.71,4.35,7.89q.09,20.1,0,40.21a9.89,9.89,0,0,1-8.6,9.49c-6.35.81-11.45-3.71-11.48-10.34,0-12,0-23.93,0-35.89,0-4.32.28-8.37,4.53-11.39Zm153.89-28.32c-.47,0-.84-.1-1.22-.1-11,0-22,0-33,0a3.76,3.76,0,0,0-2.31,1.09c-3.48,3.36-6.81,6.88-10.33,10.2A9.41,9.41,0,0,1,174.5,146a9.31,9.31,0,0,1-6.59-7.81,40.93,40.93,0,0,1,0-5.66H131.63a2.25,2.25,0,0,0,0,.65,10,10,0,0,1-4.58,12.14c-4.21,2.31-8.79,1.48-12.64-2.35-3-3-6.13-6.07-9.13-9.17a4.07,4.07,0,0,0-3.23-1.39c-10.53.06-21,0-31.58,0-.64,0-1.27.05-2,.09v21h163ZM75.12,86.06a11.46,11.46,0,0,0-1.73.67c-1.91,1.17-1.9,3.16,0,5.09q15.45,15.47,30.91,30.91,7.75,7.77,15.52,15.52c1.54,1.52,3,1.61,4.32.39s1.32-2.86-.21-4.46c-1.31-1.37-2.67-2.69-4-4Q98.81,109,77.65,87.9A18.67,18.67,0,0,0,75.12,86.06Zm103.16,53.41a17.92,17.92,0,0,0,2.36-1.78q22.83-22.77,45.62-45.59A9.62,9.62,0,0,0,227.33,91a2.87,2.87,0,0,0-4.05-4A9.62,9.62,0,0,0,222.14,88q-22.81,22.8-45.6,45.61a7.61,7.61,0,0,0-1.38,1.63C174.16,137.07,175.66,139.48,178.28,139.47ZM147,188.78q0,9.41,0,18.81c0,1.67.3,3.18,2.15,3.74,2.07.63,3.86-.73,3.87-3.13,0-12.94,0-25.87,0-38.8,0-.38,0-.93-.22-1.12-.87-.75-1.84-1.91-2.77-1.92s-2,1.07-2.75,1.92c-.41.5-.27,1.5-.27,2.28C146.94,176.63,147,182.71,147,188.78Zm-26.1,0c0,6.4,0,12.8,0,19.2,0,2.25,1,3.42,2.84,3.48s3.1-1.24,3.11-3.64q0-18.9,0-37.81c0-2.46-1.06-3.77-3-3.79s-3,1.28-3,3.75C120.84,176.23,120.85,182.5,120.85,188.77Zm58.24,0v-5.88q0-6.76,0-13.52a2.84,2.84,0,0,0-2.21-3.06,2.66,2.66,0,0,0-3.3,1.43,5.94,5.94,0,0,0-.43,2.46q0,15.28,0,30.56c0,2.48,0,5,0,7.45,0,2,1.17,3.2,2.91,3.24,1.9.05,3-1.19,3-3.48C179.1,201.57,179.08,195.17,179.09,188.77Z"/></svg>