<svg id="Calque_1" data-name="Calque 1" xmlns="http://www.w3.org/2000/svg" viewBox="0 0 300 300"><defs><style>.cls-1{fill:#fff;}</style></defs><title>USER</title><path class="cls-1" d="M141.48,53.53h16.9a19.94,19.94,0,0,0,3.35,1c40,5.19,71.8,33.38,81.64,72.5,1.3,5.19,2.1,10.52,3.13,15.78v14.48c-.38,1.72-.9,3.42-1.12,5.16-6.79,53.59-57.43,91.42-110.82,82.73a96.93,96.93,0,0,1-81-91.2C51.51,109.26,81.87,68.37,125.73,57,130.93,55.62,136.23,54.67,141.48,53.53ZM216.92,208c29.4-31.86,31.79-88.54-7.42-124A88.71,88.71,0,0,0,80.29,94.66c-32.08,40.11-19.7,92.06,2.91,112.88a117.93,117.93,0,0,1,34.54-34.92c2.87-1.91,4.75-2.14,7.76.35,15.24,12.61,33.43,12.76,48.48.32,3.42-2.83,5.58-2.48,8.77-.28A119.56,119.56,0,0,1,216.92,208Z"/><path class="cls-1" d="M114.93,133.52c-.06-29.67,21.57-46.68,46.11-39,10,3.15,16.91,9.78,20.84,19.44,6.88,16.9,2,39.07-11.1,51.15-12.16,11.18-29.27,11.31-41.44.16A44.72,44.72,0,0,1,114.93,133.52Z"/></svg>