<svg height="512pt" viewBox="-31 0 512 512" width="512pt" xmlns="http://www.w3.org/2000/svg"><path d="m150 421c8.285156 0 15-6.714844 15-15v-180c0-8.285156-6.714844-15-15-15s-15 6.714844-15 15v180c0 8.285156 6.714844 15 15 15zm0 0"/><path d="m225 421c8.285156 0 15-6.714844 15-15v-180c0-8.285156-6.714844-15-15-15s-15 6.714844-15 15v180c0 8.285156 6.714844 15 15 15zm0 0"/><path d="m300 421c8.285156 0 15-6.714844 15-15v-180c0-8.285156-6.714844-15-15-15s-15 6.714844-15 15v180c0 8.285156 6.714844 15 15 15zm0 0"/><path d="m435 120h-20.730469l-25.855469-51.707031c-2.539062-5.082031-7.730468-8.292969-13.414062-8.292969h-75v-45c0-8.285156-6.714844-15-15-15h-120c-8.285156 0-15 6.714844-15 15v45h-75c-5.683594 0-10.875 3.210938-13.417969 8.292969l-25.851562 51.707031h-20.730469c-8.285156 0-15 6.714844-15 15s6.714844 15 15 15h31.191406l28.859375 348.238281c.644531 7.777344 7.144531 13.761719 14.949219 13.761719h270c7.804688 0 14.304688-5.984375 14.949219-13.761719l28.859375-348.238281h1.101562c.035156 0 .066406.003906.101563.003906.019531 0 .039062-.003906.058593-.003906h29.929688c8.285156 0 15-6.714844 15-15s-6.714844-15-15-15zm-255-90h90v30h-90zm-95.730469 60h281.460938l15 30h-311.460938zm261.921875 392h-242.382812l-27.515625-332h297.410156zm0 0"/></svg>