<svg xmlns="http://www.w3.org/2000/svg" width="24.679" height="24.679" viewBox="0 0 24.679 24.679">
  <path id="Icon_awesome-phone-square" data-name="Icon awesome-phone-square" d="M22.035,2.25H2.644A2.644,2.644,0,0,0,0,4.894V24.285a2.644,2.644,0,0,0,2.644,2.644H22.035a2.644,2.644,0,0,0,2.644-2.644V4.894A2.644,2.644,0,0,0,22.035,2.25ZM5.178,23.4a.827.827,0,0,1-.805-.641l-.826-3.581a.826.826,0,0,1,.48-.945l3.856-1.653a.826.826,0,0,1,.965.236l1.708,2.087a12.771,12.771,0,0,0,6.1-6.1L14.571,11.1a.826.826,0,0,1-.236-.965l1.653-3.856a.826.826,0,0,1,.945-.48l3.581.826a.826.826,0,0,1,.641.805A15.975,15.975,0,0,1,5.178,23.4Z" transform="translate(0 -2.25)" fill="#f8f8f8"/>
</svg>
