<svg xmlns="http://www.w3.org/2000/svg" width="24.679" height="24.679" viewBox="0 0 24.679 24.679">
  <path id="Icon_awesome-whatsapp" data-name="Icon awesome-whatsapp" d="M20.983,5.836A12.233,12.233,0,0,0,1.735,20.594L0,26.929l6.484-1.7a12.192,12.192,0,0,0,5.845,1.487h.006A12.347,12.347,0,0,0,24.679,14.485a12.278,12.278,0,0,0-3.7-8.649ZM12.334,24.654a10.147,10.147,0,0,1-5.178-1.416l-.369-.22L2.942,24.026l1.025-3.751-.242-.386a10.184,10.184,0,1,1,18.89-5.4A10.278,10.278,0,0,1,12.334,24.654Zm5.575-7.613c-.3-.154-1.807-.892-2.088-.992s-.485-.154-.689.154-.788.992-.97,1.2-.358.231-.661.077a8.318,8.318,0,0,1-4.159-3.636c-.314-.54.314-.5.9-1.669a.566.566,0,0,0-.028-.534c-.077-.154-.689-1.658-.942-2.27-.248-.595-.5-.512-.689-.523S8.2,8.838,8,8.838a1.132,1.132,0,0,0-.815.38,3.434,3.434,0,0,0-1.069,2.551A5.986,5.986,0,0,0,7.36,14.931a13.655,13.655,0,0,0,5.222,4.616c1.939.837,2.7.909,3.669.766a3.13,3.13,0,0,0,2.06-1.454,2.556,2.556,0,0,0,.176-1.454C18.416,17.267,18.212,17.19,17.909,17.041Z" transform="translate(0 -2.25)" fill="#f8f8f8"/>
</svg>
