<svg xmlns="http://www.w3.org/2000/svg" width="46.215" height="57" viewBox="0 0 46.215 57">
  <g id="Groupe_3" data-name="Groupe 3" transform="translate(-219.495 -159.614)">
    <path id="Tracé_7" data-name="Tracé 7" d="M265.68,180.258a5.355,5.355,0,0,0-.165-1.84,5.2,5.2,0,0,0-9.361-1.637l-3.648,5.372a11.916,11.916,0,0,1-19.805-.075l-3.534-5.286a5.215,5.215,0,0,0-4.332-2.331h-.026a5.263,5.263,0,0,0-5.207,4.725c-.006.063-.009.125-.015.188-.057.674-.094,1.354-.094,2.042,0,10.038,13.847,26.785,20.1,33.84a4,4,0,0,0,3.034,1.356l0,0,0,0a4,4,0,0,0,2.971-1.355c6.256-7.054,20.1-23.8,20.1-33.84C265.71,181.027,265.7,180.641,265.68,180.258Z" fill="#f27c00"/>
    <ellipse id="Ellipse_1" data-name="Ellipse 1" cx="8.268" cy="8.401" rx="8.268" ry="8.401" transform="translate(234.334 159.614)" fill="#161b4b"/>
  </g>
</svg>
